<svg xmlns="http://www.w3.org/2000/svg" width="307.428" height="154.799" viewBox="0 0 307.428 154.799"><path d="M131.545,77.4,61.968,154.8H0L61.968,86.416l7.658-8.45c.16-.187.319-.374.479-.567-.16-.193-.319-.38-.479-.567l-7.658-8.45L0,0H61.968Z" transform="translate(85.822)" fill="#fff" opacity="0.5"/><path d="M131.545,77.4,61.968,154.8H0L61.968,86.416l7.658-8.45c.16-.187.319-.374.479-.567-.16-.193-.319-.38-.479-.567l-7.658-8.45L0,0H61.968Z" transform="translate(0)" fill="#fff" opacity="0.2"/><path d="M295.25,77.4l-69.577,77.4H163.705l61.968-68.383,7.658-8.45c.16-.187.319-.374.479-.567-.16-.193-.319-.38-.479-.567l-7.658-8.45L163.705,0h61.968Z" transform="translate(12.178)" fill="#fff"/></svg>