<svg xmlns="http://www.w3.org/2000/svg" width="786.203" height="198.065" viewBox="0 0 786.203 198.065">
  <g id="designer1" transform="translate(2.5 5)">
    <g id="arrow" fill="#fff">
      <path d="M 752.7953491210938 32.82445526123047 L 751.0279541015625 31.04849624633789 L 747.718994140625 27.72348785400391 L 745.9594116210938 25.95540618896484 L 747.7235717773438 24.19190788269043 L 764.7298583984375 7.192017078399658 L 756.4869995117188 7.192017078399658 L 753.9869995117188 7.192017078399658 L 753.9869995117188 4.692017078399658 L 753.9869995117188 1.708984382275958e-05 L 753.9869995117188 -2.499982833862305 L 756.4869995117188 -2.499982833862305 L 778.7030029296875 -2.499982833862305 L 781.2030029296875 -2.499982833862305 L 781.2030029296875 1.708984382275958e-05 L 781.2030029296875 22.21601676940918 L 781.2030029296875 24.71601676940918 L 778.7030029296875 24.71601676940918 L 774.0120239257812 24.71601676940918 L 771.5120239257812 24.71601676940918 L 771.5120239257812 22.21601676940918 L 771.5120239257812 14.1157283782959 L 754.5673828125 31.05315780639648 L 752.7953491210938 32.82445526123047 Z" stroke="none"/>
      <path d="M 752.7999877929688 29.2850170135498 L 774.0120239257812 8.082016944885254 L 774.0120239257812 22.21601676940918 L 778.7030029296875 22.21601676940918 L 778.7030029296875 1.708984382275958e-05 L 756.4869995117188 1.708984382275958e-05 L 756.4869995117188 4.692017078399658 L 770.7669677734375 4.692017078399658 L 749.4910278320312 25.96000671386719 L 752.7999877929688 29.2850170135498 M 752.7906494140625 36.36388778686523 L 742.4278564453125 25.95080757141113 L 758.6926879882812 9.692017555236816 L 751.4869995117188 9.692017555236816 L 751.4869995117188 -4.999982833862305 L 783.7030029296875 -4.999982833862305 L 783.7030029296875 27.21601676940918 L 769.0120239257812 27.21601676940918 L 769.0120239257812 20.14945030212402 L 752.7906494140625 36.36388778686523 Z" stroke="none" fill="#707070"/>
    </g>
    <g id="r" fill="#f1f2f2">
      <path d="M 727.950927734375 189.9499969482422 L 724.666015625 189.9499969482422 L 696.0159912109375 189.9499969482422 L 694.0661010742188 189.9499969482422 L 693.5912475585938 188.0588531494141 L 674.01611328125 110.0999984741211 L 664.14599609375 110.0999984741211 L 664.14599609375 187.4499969482422 L 664.14599609375 189.9499969482422 L 661.64599609375 189.9499969482422 L 634.0460205078125 189.9499969482422 L 631.5460205078125 189.9499969482422 L 631.5460205078125 187.4499969482422 L 631.5460205078125 -1.525878928987368e-06 L 631.5460205078125 -2.500001430511475 L 634.0460205078125 -2.500001430511475 L 678.7960205078125 -2.500001430511475 L 678.8260498046875 -2.500001430511475 L 678.8560180664062 -2.499276638031006 C 685.3704833984375 -2.342801570892334 691.33984375 -1.180151581764221 696.5983276367188 0.9563734531402588 C 701.8947143554688 3.108348369598389 706.5982055664062 6.298148632049561 710.5780639648438 10.43722343444824 C 714.7095336914062 14.73267364501953 717.8500366210938 19.81559753417969 719.9120483398438 25.54459762573242 C 721.9517822265625 31.21172332763672 722.9860229492188 37.65652465820312 722.9860229492188 44.69999694824219 L 722.9860229492188 67.04999542236328 L 722.9860229492188 67.06692504882812 L 722.9857788085938 67.08384704589844 C 722.938720703125 70.55862426757812 722.544921875 74.04141998291016 721.8151245117188 77.43550109863281 C 721.085205078125 80.83061981201172 720.0130004882812 84.16549682617188 718.6283569335938 87.34749603271484 L 718.5983276367188 87.41657257080078 L 718.5641479492188 87.48372650146484 C 716.8684692382812 90.8162841796875 714.7592163085938 93.87693023681641 712.2860107421875 96.59529113769531 L 712.2860107421875 96.71767425537109 L 711.5347900390625 97.39901733398438 L 710.8646240234375 98.09999847412109 L 710.7417602539062 98.09999847412109 C 708.5684814453125 99.96443939208984 706.16748046875 101.5829620361328 703.9142456054688 103.0048065185547 L 727.0756225585938 186.7838439941406 L 727.950927734375 189.9499969482422 Z M 664.14599609375 78.22999572753906 L 676.7960205078125 78.22999572753906 C 677.7658081054688 78.22999572753906 678.7454223632812 78.12449645996094 679.7077026367188 77.91645050048828 L 679.7490844726562 77.90752410888672 L 679.790771484375 77.89997100830078 C 682.6536865234375 77.38175201416016 684.9050903320312 76.24577331542969 686.6737060546875 74.42707061767578 C 688.1287841796875 72.93070220947266 689.1627197265625 71.03419494628906 689.74658203125 68.79039764404297 L 689.7603759765625 68.73747253417969 L 689.7764282226562 68.68519592285156 C 689.7988891601562 68.61212158203125 689.8244018554688 68.529296875 689.83154296875 68.49575042724609 L 689.8496704101562 68.41144561767578 L 689.8734741210938 68.32859802246094 C 690.2135620117188 67.14694976806641 690.385986328125 65.90592193603516 690.385986328125 64.63999938964844 L 690.385986328125 63.82999801635742 L 690.385986328125 63.75652313232422 L 690.3903198242188 63.68319702148438 C 690.39599609375 63.58652496337891 690.39599609375 63.45707321166992 690.39599609375 63.31999969482422 L 690.39599609375 44.16999816894531 C 690.39599609375 44.03292465209961 690.39599609375 43.90347290039062 690.3903198242188 43.80679702758789 L 690.385986328125 43.73347473144531 L 690.385986328125 43.65999984741211 L 690.385986328125 42.93999862670898 C 690.385986328125 41.80419921875 690.2406616210938 40.66014862060547 689.9539794921875 39.53962326049805 L 689.8759765625 39.23472213745117 L 689.8759765625 39.1928825378418 C 689.2918090820312 36.68124771118164 688.2422485351562 34.67023468017578 686.67138671875 33.05049896240234 C 684.1964111328125 30.50002288818359 680.7117309570312 29.25994873046875 676.0186767578125 29.25994873046875 L 675.9706420898438 29.2599983215332 L 664.14599609375 29.2599983215332 L 664.14599609375 78.22999572753906 Z" stroke="none"/>
      <path d="M 724.666015625 187.4499969482422 L 701.0059814453125 101.8699951171875 C 704.2059936523438 99.90000152587891 707.2059936523438 97.94999694824219 709.7860107421875 95.61000061035156 C 709.7860107421875 95.59999847412109 709.7960205078125 95.59999847412109 709.7960205078125 95.59999847412109 C 712.406005859375 92.8699951171875 714.6060180664062 89.75 716.3359985351562 86.34999847412109 C 718.9860229492188 80.26000213623047 720.39599609375 73.69999694824219 720.4860229492188 67.04999542236328 L 720.4860229492188 44.69999694824219 C 720.4860229492188 31.1299991607666 716.5859985351562 20.28999900817871 708.7760009765625 12.16999816894531 C 701.2760009765625 4.369998455047607 691.2860107421875 0.2999984622001648 678.7960205078125 -1.525878928987368e-06 L 634.0460205078125 -1.525878928987368e-06 L 634.0460205078125 187.4499969482422 L 661.64599609375 187.4499969482422 L 661.64599609375 107.5999984741211 L 675.9660034179688 107.5999984741211 L 696.0159912109375 187.4499969482422 L 724.666015625 187.4499969482422 M 661.64599609375 26.7599983215332 L 675.9660034179688 26.7599983215332 C 675.9833984375 26.75996589660645 676.0013427734375 26.75994873046875 676.0186767578125 26.75994873046875 C 681.37353515625 26.75994873046875 685.5255126953125 28.27983283996582 688.4660034179688 31.30999755859375 C 690.39599609375 33.29999923706055 691.6959838867188 35.81999969482422 692.3660278320312 38.86999893188477 C 692.3660278320312 38.88999938964844 692.3759765625 38.89999771118164 692.3759765625 38.91999816894531 C 692.7059936523438 40.20999908447266 692.885986328125 41.54999923706055 692.885986328125 42.93999862670898 L 692.885986328125 43.65999984741211 C 692.89599609375 43.82999801635742 692.89599609375 44 692.89599609375 44.16999816894531 L 692.89599609375 63.31999969482422 C 692.89599609375 63.48999786376953 692.89599609375 63.65999984741211 692.885986328125 63.82999801635742 L 692.885986328125 64.63999938964844 C 692.885986328125 66.15999603271484 692.676025390625 67.62999725341797 692.2760009765625 69.01999664306641 C 692.2459716796875 69.15999603271484 692.2059936523438 69.29000091552734 692.166015625 69.41999816894531 C 691.4660034179688 72.11000061035156 690.2260131835938 74.36000061035156 688.4660034179688 76.16999816894531 C 686.3460083007812 78.34999847412109 683.6060180664062 79.75 680.2360229492188 80.36000061035156 C 679.1259765625 80.59999847412109 677.9760131835938 80.72999572753906 676.7960205078125 80.72999572753906 L 661.64599609375 80.72999572753906 L 661.64599609375 26.7599983215332 M 731.23583984375 192.4499969482422 L 692.1162719726562 192.4499969482422 L 672.0662231445312 112.5999984741211 L 666.64599609375 112.5999984741211 L 666.64599609375 192.4499969482422 L 629.0460205078125 192.4499969482422 L 629.0460205078125 -5.000001430511475 L 678.9160766601562 -4.998557090759277 C 692.696533203125 -4.667557239532471 703.9555053710938 -0.05719596892595291 712.380126953125 8.704442977905273 C 716.7567138671875 13.25474834442139 720.0823974609375 18.63591575622559 722.2642822265625 24.69794273376465 C 724.402099609375 30.63741493225098 725.4860229492188 37.36708068847656 725.4860229492188 44.69999694824219 L 725.485595703125 67.11769104003906 C 725.436279296875 70.7574462890625 725.0237426757812 74.4056396484375 724.25927734375 77.96099853515625 C 723.4945678710938 81.51774597167969 722.371337890625 85.01141357421875 720.9207153320312 88.34502410888672 L 720.8606567382812 88.48316192626953 L 720.7922973632812 88.61743927001953 C 719.145751953125 91.85343170166016 717.1300659179688 94.84882354736328 714.7860107421875 97.54586791992188 L 714.7860107421875 97.82533264160156 L 713.2804565429688 99.19080352783203 L 711.9332275390625 100.5999984741211 L 711.6505737304688 100.5999984741211 C 710.0767822265625 101.8889541625977 708.4269409179688 103.0521850585938 706.8141479492188 104.1121063232422 L 731.23583984375 192.4499969482422 Z M 666.64599609375 75.72999572753906 L 676.7960205078125 75.72999572753906 C 677.5885620117188 75.72999572753906 678.390380859375 75.64350128173828 679.1793823242188 75.47291564941406 L 679.2621459960938 75.45502471923828 L 679.345458984375 75.43994140625 C 681.6778564453125 75.01774597167969 683.4887084960938 74.1163330078125 684.8814697265625 72.68416595458984 C 686.0469360351562 71.48555755615234 686.8470458984375 70.00588989257812 687.3272094726562 68.16077423095703 L 687.354736328125 68.05500030517578 L 687.3868408203125 67.95050048828125 C 687.39208984375 67.93344879150391 687.3973999023438 67.91642761230469 687.4026489257812 67.89931488037109 L 687.42333984375 67.8028564453125 L 687.4710083007812 67.63716888427734 C 687.7463989257812 66.68035888671875 687.885986328125 65.67197418212891 687.885986328125 64.63999938964844 L 687.885986328125 63.68305587768555 L 687.8946533203125 63.5363883972168 C 687.89599609375 63.50449752807617 687.89599609375 63.39786148071289 687.89599609375 63.31999969482422 L 687.89599609375 44.16999816894531 C 687.89599609375 44.09213638305664 687.89599609375 43.98550033569336 687.8943481445312 43.94869232177734 L 687.8857421875 43.80202484130859 L 687.885986328125 42.93999862670898 C 687.885986328125 42.01305389404297 687.7669067382812 41.07744216918945 687.531982421875 40.15916442871094 L 687.3759765625 39.54938888549805 L 687.3759765625 39.49161148071289 C 686.8877563476562 37.56015777587891 686.0676879882812 36.01896286010742 684.8767700195312 34.79100036621094 C 682.8978881835938 32.75174713134766 680.0000610351562 31.75994300842285 676.0186767578125 31.75994300842285 L 675.9660034179688 31.7599983215332 L 666.64599609375 31.7599983215332 L 666.64599609375 75.72999572753906 Z" stroke="none" fill="#707070"/>
    </g>
    <g id="e" fill="#f1f2f2">
      <path d="M 624.0516357421875 190.5631103515625 L 621.5516357421875 190.5631103515625 L 543.1796875 190.5631103515625 L 540.6796875 190.5631103515625 L 540.6796875 188.0631103515625 L 540.6796875 0.0001085815456463024 L 540.6796875 -2.499891519546509 L 543.1796875 -2.499891519546509 L 621.5516357421875 -2.499891519546509 L 624.0516357421875 -2.499891519546509 L 624.0516357421875 0.0001085815456463024 L 624.0516357421875 26.86510848999023 L 624.0516357421875 29.36510848999023 L 621.5516357421875 29.36510848999023 L 573.2796630859375 29.36510848999023 L 573.2796630859375 78.09510803222656 L 611.1376342773438 78.09510803222656 L 613.6376342773438 78.09510803222656 L 613.6376342773438 80.59510803222656 L 613.6376342773438 107.4681091308594 L 613.6376342773438 109.9681091308594 L 611.1376342773438 109.9681091308594 L 573.2796630859375 109.9681091308594 L 573.2796630859375 158.7001037597656 L 621.5516357421875 158.7001037597656 L 624.0516357421875 158.7001037597656 L 624.0516357421875 161.2001037597656 L 624.0516357421875 188.0631103515625 L 624.0516357421875 190.5631103515625 Z" stroke="none"/>
      <path d="M 543.1796875 0.0001068115234375 L 543.1796875 188.0631103515625 L 621.5516357421875 188.0631103515625 L 621.5516357421875 161.2001037597656 L 570.7796630859375 161.2001037597656 L 570.7796630859375 107.4681091308594 L 611.1376342773438 107.4681091308594 L 611.1376342773438 80.59510803222656 L 570.7796630859375 80.59510803222656 L 570.7796630859375 26.8651123046875 L 621.5516357421875 26.8651123046875 L 621.5516357421875 0.0001068115234375 L 543.1796875 0.0001068115234375 M 538.1796875 -4.999893188476562 L 626.5516357421875 -4.999893188476562 L 626.5516357421875 31.8651123046875 L 575.7796630859375 31.8651123046875 L 575.7796630859375 75.59510803222656 L 616.1376342773438 75.59510803222656 L 616.1376342773438 112.4681091308594 L 575.7796630859375 112.4681091308594 L 575.7796630859375 156.2001037597656 L 626.5516357421875 156.2001037597656 L 626.5516357421875 193.0631103515625 L 538.1796875 193.0631103515625 L 538.1796875 -4.999893188476562 Z" stroke="none" fill="#707070"/>
    </g>
    <g id="n" fill="#f1f2f2">
      <path d="M 533.1859741210938 190.5631103515625 L 530.6859741210938 190.5631103515625 L 501.5199890136719 190.5631103515625 L 499.6650085449219 190.5631103515625 L 499.1273193359375 188.7877349853516 L 467.5679931640625 84.58018493652344 L 467.5679931640625 188.0601043701172 L 467.5679931640625 190.5601043701172 L 465.0679931640625 190.5601043701172 L 437.9909973144531 190.5601043701172 L 435.4909973144531 190.5601043701172 L 435.4909973144531 188.0601043701172 L 435.4909973144531 0.0001085815456463024 L 435.4909973144531 -2.499891519546509 L 437.9909973144531 -2.499891519546509 L 468.4549865722656 -2.499891519546509 L 470.3541870117188 -2.499891519546509 L 470.8634338378906 -0.6702335476875305 L 501.1000061035156 107.9654235839844 L 501.1000061035156 0.0001085815456463024 L 501.1000061035156 -2.499891519546509 L 503.6000061035156 -2.499891519546509 L 530.6859741210938 -2.499891519546509 L 533.1859741210938 -2.499891519546509 L 533.1859741210938 0.0001085815456463024 L 533.1859741210938 188.0631103515625 L 533.1859741210938 190.5631103515625 Z" stroke="none"/>
      <path d="M 530.6859741210938 188.0631103515625 L 530.6859741210938 0.0001085815456463024 L 503.6000061035156 0.0001085815456463024 L 503.6000061035156 126.271110534668 L 468.4549865722656 0.0001085815456463024 L 437.9909973144531 0.0001085815456463024 L 437.9909973144531 188.0601043701172 L 465.0679931640625 188.0601043701172 L 465.0679931640625 67.70011138916016 L 501.5199890136719 188.0631103515625 L 530.6859741210938 188.0631103515625 M 535.6859741210938 193.0631103515625 L 497.8099975585938 193.0631103515625 L 470.0679931640625 101.4602203369141 L 470.0679931640625 193.0601043701172 L 432.9909973144531 193.0601043701172 L 432.9909973144531 -4.99989128112793 L 472.25341796875 -4.99989128112793 L 498.6000061035156 89.65962219238281 L 498.6000061035156 -4.99989128112793 L 535.6859741210938 -4.99989128112793 L 535.6859741210938 193.0631103515625 Z" stroke="none" fill="#707070"/>
    </g>
    <path id="g" d="M381.413,0q-19.789,0-32.026,12.107t-12.237,31.9v99.459q0,19.792,12.237,31.9t32.026,12.107q19.787.012,32.025-12.1t12.238-31.9V80.6H381.413v26.873h16.663v36q0,8.592-4.426,13.279t-12.237,4.687q-7.811,0-12.237-4.686t-4.426-13.279V44.011q0-8.592,4.426-13.279t12.238-4.687q7.811,0,12.237,4.687t4.426,13.279V53l27.6,0V44.007q0-19.792-12.238-31.9T381.413,0" fill="#f1f2f2" stroke="#707070" stroke-width="5"/>
    <g id="i" transform="translate(296.956 0.003)" fill="#f1f2f2" stroke="#707070" stroke-width="5">
      <rect width="27.6" height="188.062" stroke="none"/>
      <rect x="-2.5" y="-2.5" width="32.6" height="193.062" fill="none"/>
    </g>
    <path id="s" d="M249.419,83.053Q234.574,68.176,229.369,60.2c-.15-.211-.29-.432-.43-.652a29.787,29.787,0,0,1-4.77-15.931c-.01-5.748,1.3-10.1,3.9-13.061s6.34-4.444,11.2-4.444,8.593,1.828,11.2,5.487,3.91,8.969,3.91,15.931v5.464h26.56V45.179q-.01-20.635-11.2-32.9T239.009,0q-19.52-.007-30.72,12.145t-11.2,32.783a54.693,54.693,0,0,0,7.42,27.949q7.42,12.8,27.73,32.121,15.095,14.361,20.18,22.461a31.6,31.6,0,0,1,5.08,16.984q0,8.091-4.82,12.791t-12.89,4.7q-8.33-.011-13.02-5.748t-4.69-15.669v-5.452h-26.55v8.068a47.422,47.422,0,0,0,5.6,23.243,40.16,40.16,0,0,0,15.75,15.931,49.593,49.593,0,0,0,46.35,0,40.264,40.264,0,0,0,15.74-15.931,47.422,47.422,0,0,0,5.6-23.243v0a52.119,52.119,0,0,0-7.42-27.3q-7.42-12.409-27.73-32.784" fill="#f1f2f2" stroke="#707070" stroke-width="5"/>
    <g id="e-2" data-name="e" fill="#f1f2f2">
      <path d="M 185.5350036621094 190.5630035400391 L 183.0350036621094 190.5630035400391 L 104.6630020141602 190.5630035400391 L 102.1630020141602 190.5630035400391 L 102.1630020141602 188.0630035400391 L 102.1630020141602 1.770019480318297e-06 L 102.1630020141602 -2.499998331069946 L 104.6630020141602 -2.499998331069946 L 183.0350036621094 -2.499998331069946 L 185.5350036621094 -2.499998331069946 L 185.5350036621094 1.770019480318297e-06 L 185.5350036621094 26.8650016784668 L 185.5350036621094 29.3650016784668 L 183.0350036621094 29.3650016784668 L 134.7630004882812 29.3650016784668 L 134.7630004882812 78.09500122070312 L 172.6210021972656 78.09500122070312 L 175.1210021972656 78.09500122070312 L 175.1210021972656 80.59500122070312 L 175.1210021972656 107.4680023193359 L 175.1210021972656 109.9680023193359 L 172.6210021972656 109.9680023193359 L 134.7630004882812 109.9680023193359 L 134.7630004882812 158.6999969482422 L 183.0350036621094 158.6999969482422 L 185.5350036621094 158.6999969482422 L 185.5350036621094 161.1999969482422 L 185.5350036621094 188.0630035400391 L 185.5350036621094 190.5630035400391 Z" stroke="none"/>
      <path d="M 183.0350036621094 188.0630035400391 L 183.0350036621094 161.1999969482422 L 132.2630004882812 161.1999969482422 L 132.2630004882812 107.4680023193359 L 172.6210021972656 107.4680023193359 L 172.6210021972656 80.59500122070312 L 132.2630004882812 80.59500122070312 L 132.2630004882812 26.8650016784668 L 183.0350036621094 26.8650016784668 L 183.0350036621094 1.770019480318297e-06 L 104.6630020141602 1.770019480318297e-06 L 104.6630020141602 188.0630035400391 L 183.0350036621094 188.0630035400391 M 188.0350036621094 193.0630035400391 L 99.66300201416016 193.0630035400391 L 99.66300201416016 -4.999998092651367 L 188.0350036621094 -4.999998092651367 L 188.0350036621094 31.8650016784668 L 137.2630004882812 31.8650016784668 L 137.2630004882812 75.59500122070312 L 177.6210021972656 75.59500122070312 L 177.6210021972656 112.4680023193359 L 137.2630004882812 112.4680023193359 L 137.2630004882812 156.1999969482422 L 188.0350036621094 156.1999969482422 L 188.0350036621094 193.0630035400391 Z" stroke="none" fill="#707070"/>
    </g>
    <path id="d" d="M48.968.021H0V188.063H27.57V162.241h.03V26.441H47.668q8.07,0,12.5,4.487t4.42,12.682l-.017,144.453H92.188V44.138q0-20.07-11.72-32.093T48.968.021" fill="#f1f2f2" stroke="#707070" stroke-width="5"/>
  </g>
</svg>
