<svg id="developer" xmlns="http://www.w3.org/2000/svg" xmlns:xlink="http://www.w3.org/1999/xlink" width="920.971" height="188.941" viewBox="0 0 920.971 188.941">
  <defs>
    <clipPath id="clip-path">
      <rect id="Rectangle_199" data-name="Rectangle 199" width="920.971" height="188.941" fill="none"/>
    </clipPath>
  </defs>
  <path id="Path_324" data-name="Path 324" d="M305.362.615V188.678h78.372V161.815H332.962V108.083H373.32V81.21H332.962V27.48h50.772V.615Z" fill="#f1f2f2"/>
  <path id="Path_325" data-name="Path 325" d="M685.424.615V188.678H763.8V161.815H713.024V108.083h40.358V81.21H713.024V27.48H763.8V.615Z" fill="#f1f2f2"/>
  <path id="Path_326" data-name="Path 326" d="M104.663.615V188.678h78.372V161.815H132.263V108.083h40.358V81.21H132.263V27.48h50.772V.615Z" fill="#f1f2f2"/>
  <g id="Group_393" data-name="Group 393">
    <g id="Group_392" data-name="Group 392" clip-path="url(#clip-path)">
      <path id="Path_327" data-name="Path 327" d="M561.771,12.77Q549.546.609,529.751.615,509.963.6,497.721,12.761q-12.24,12.177-12.23,32.046V144.74q-.015,19.876,12.23,32.046t32.03,12.155q19.785.015,32.02-12.155t12.24-32.046V44.816q0-19.878-12.24-32.046m-15.36,131.972q0,8.64-4.42,13.342t-12.24,4.712q-7.815,0-12.24-4.712t-4.42-13.342V44.816q0-8.64,4.42-13.342t12.24-4.712q7.815,0,12.24,4.712t4.42,13.342Z" fill="#f1f2f2"/>
      <path id="Path_328" data-name="Path 328" d="M80.468,176.894q-11.715,12.042-31.5,12.042H0V.615H27.57V26.476h.03v136H47.668q8.07,0,12.5-4.493,4.425-4.509,4.42-12.7L64.571.611H92.188V144.757q0,20.1-11.72,32.142" fill="#f1f2f2"/>
      <path id="Path_329" data-name="Path 329" d="M292.9.615,262.7,188.941H225.721L195.521.615h28.12l20.832,147.967L265.3.615Z" fill="#f1f2f2"/>
      <path id="Path_330" data-name="Path 330" d="M396.223.615h27.6V162.038h49.208v26.9h-76.81Z" fill="#f1f2f2"/>
      <path id="Path_331" data-name="Path 331" d="M661.227,12.86Q649.5.614,629.717.615H586.5V188.94h27.6V112.53h15.62q19.785,0,31.51-12.234T672.941,67.6V45.542q0-20.443-11.711-32.682M645.341,68.14q.013,8.337-4.421,12.916t-12.5,4.578l-14.32-.011V27.512h14.32q8.07,0,12.5,4.577t4.421,12.916Z" fill="#f1f2f2"/>
      <path id="Path_332" data-name="Path 332" d="M891.759,25.96,913.035,4.692h-14.28V0h22.216V22.216H916.28V8.082l-21.212,21.2Z" fill="#fff"/>
      <path id="Path_333" data-name="Path 333" d="M104.663,188.678h78.372V161.815H132.263V108.083h40.358V81.21H132.263V27.48h50.772V.615H104.663Z" fill="#f1f2f2"/>
      <path id="Path_334" data-name="Path 334" d="M685.424,188.678H763.8V161.815H713.024V108.083h40.358V81.21H713.024V27.48H763.8V.615H685.424Z" fill="#f1f2f2"/>
      <path id="Path_335" data-name="Path 335" d="M843.4,103.025l-.15-.54a58.719,58.719,0,0,0,8.78-6.26.01.01,0,0,1,.01-.01,38.908,38.908,0,0,0,6.54-9.25,50.063,50.063,0,0,0,4.15-19.3V45.315q0-20.355-11.71-32.53-11.25-11.7-29.98-12.17h-44.75v187.45h27.6v-79.85h14.32l20.05,79.85h28.65Zm-8.26-39.09c0,.17,0,.34-.01.51v.81a15.818,15.818,0,0,1-.61,4.38c-.03.14-.07.27-.11.4a14.366,14.366,0,0,1-11.93,10.94,16.257,16.257,0,0,1-3.44.37h-15.15V27.375h14.32q8.07-.015,12.5,4.55a15.308,15.308,0,0,1,3.9,7.56c0,.02.01.03.01.05a16.161,16.161,0,0,1,.51,4.02v.72c.01.17.01.34.01.51Z" fill="#f1f2f2"/>
    </g>
  </g>
</svg>
