<svg xmlns="http://www.w3.org/2000/svg" width="100.251" height="46.861" viewBox="0 0 100.251 46.861">
  <g id="nsas-logo" transform="translate(-0.633 -0.011)">
    <path id="Path_494" data-name="Path 494" d="M56.5,23.785v9.246c-.01.373-.157.523-.528.529-.344,0-.689.006-1.031,0s-.505-.154-.518-.506c0-.079,0-.156,0-.235V20.207c-.006-.238-.021-.5.258-.59a.768.768,0,0,1,.786.1,2.723,2.723,0,0,1,.295.317q3.805,4.476,7.609,8.953c.069.083.145.158.252.275V20.519c0-.1-.006-.2,0-.3a.425.425,0,0,1,.444-.442c.4-.011.8-.01,1.2,0a.429.429,0,0,1,.451.4,1.952,1.952,0,0,1,.013.3V33.09c0,.263.008.55-.3.636a.77.77,0,0,1-.859-.192c-.388-.459-.769-.923-1.152-1.386q-3.329-4.026-6.656-8.054c-.069-.085-.142-.167-.264-.308Z" transform="translate(-13.121 -4.768)" fill="#c69760"/>
    <path id="Path_495" data-name="Path 495" d="M106.414,30.627h-6.207c-.042.087-.09.171-.128.262-.327.731-.664,1.459-.974,2.2a.685.685,0,0,1-.742.483c-.3-.017-.6,0-.9,0-.545,0-.708-.248-.486-.742q.712-1.583,1.429-3.163,2.164-4.79,4.325-9.582c.036-.081.071-.163.111-.242a.581.581,0,0,1,.974,0c.04.081.079.16.115.24q2.826,6.3,5.653,12.606a3.122,3.122,0,0,1,.13.308.4.4,0,0,1-.365.571c-.432.019-.865.01-1.3,0a.549.549,0,0,1-.494-.388c-.2-.458-.41-.913-.616-1.371-.174-.384-.349-.769-.53-1.173Zm-.806-1.832c-.763-1.728-1.515-3.438-2.307-5.2-.779,1.776-1.527,3.478-2.284,5.2Z" transform="translate(-23.477 -4.771)" fill="#c69760"/>
    <path id="Path_496" data-name="Path 496" d="M124.893,33.758a6.162,6.162,0,0,1-3.644-1.4,2.706,2.706,0,0,1-.249-.221.407.407,0,0,1-.09-.571c.181-.317.373-.632.585-.932a.469.469,0,0,1,.725-.1c.2.146.381.306.57.461a3.69,3.69,0,0,0,2.793.831,2.114,2.114,0,0,0,1.1-.421,1.649,1.649,0,0,0,.383-2.24,2.365,2.365,0,0,0-.811-.779c-.517-.3-1.045-.584-1.586-.838a14.775,14.775,0,0,1-1.835-.938,4.671,4.671,0,0,1-1.121-.988,3.667,3.667,0,0,1,1.747-5.77,5.617,5.617,0,0,1,3.969.158,9.033,9.033,0,0,1,1.3.669.548.548,0,0,1,.191.877c-.134.217-.274.433-.417.644a.556.556,0,0,1-.9.2c-.3-.185-.6-.377-.918-.536a3.242,3.242,0,0,0-2.328-.263,1.633,1.633,0,0,0-1.28,1.265,1.556,1.556,0,0,0,.383,1.457,3.408,3.408,0,0,0,.792.654c.448.261.932.461,1.4.69.6.292,1.2.567,1.787.886a4.686,4.686,0,0,1,1.356,1.117,3.578,3.578,0,0,1-.414,5.01,5.036,5.036,0,0,1-3.493,1.09Z" transform="translate(-29.319 -4.768)" fill="#c69760"/>
    <path id="Path_497" data-name="Path 497" d="M82.828,19.575a6.458,6.458,0,0,1,3.539,1.092.564.564,0,0,1,.186.906c-.142.227-.283.454-.436.671a.531.531,0,0,1-.826.173c-.266-.162-.524-.335-.8-.483a3.336,3.336,0,0,0-2.476-.342A1.631,1.631,0,0,0,80.73,22.85a1.566,1.566,0,0,0,.394,1.486,3.443,3.443,0,0,0,.8.648c.45.26.934.458,1.4.686.587.286,1.182.559,1.756.873a4.75,4.75,0,0,1,1.36,1.113,3.574,3.574,0,0,1-.423,5.031,4.487,4.487,0,0,1-2.644,1.057,6.271,6.271,0,0,1-4.5-1.4c-.027-.021-.052-.042-.077-.065-.388-.338-.408-.461-.134-.907.134-.217.266-.436.408-.65a.514.514,0,0,1,.863-.138c.279.219.551.452.844.65a3.51,3.51,0,0,0,2.828.511,1.928,1.928,0,0,0,.6-.265,1.644,1.644,0,0,0,.49-2.338,2.444,2.444,0,0,0-.817-.775c-.519-.3-1.046-.581-1.588-.833a13.952,13.952,0,0,1-1.86-.959,3.941,3.941,0,0,1-1.55-1.746,3.668,3.668,0,0,1,2.43-5.053A5.206,5.206,0,0,1,82.828,19.575Z" transform="translate(-18.989 -4.772)" fill="#c69760"/>
    <g id="Group_544" data-name="Group 544">
      <path id="Path_498" data-name="Path 498" d="M124.675,50.333c.09-.242.157-.417.218-.594q1.145-3.276,2.289-6.552c.015-.042.03-.085.045-.125.107-.277.212-.338.541-.311.236.019.324.1.377.386q.276,1.442.545,2.888.551,2.9,1.1,5.806c.025.131.056.261.071.394a.3.3,0,0,1-.314.375c-.144.011-.289.006-.432,0-.321-.006-.42-.083-.476-.39-.076-.427-.144-.856-.216-1.284q-.439-2.584-.88-5.17a.547.547,0,0,0-.065-.117c-.045.115-.084.2-.115.288l-2.187,6.341c-.011.031-.017.065-.029.1-.116.327-.181.373-.5.369-.3,0-.365-.048-.476-.361q-.572-1.638-1.14-3.278c-.4-1.155-.806-2.309-1.254-3.466-.069.394-.139.788-.206,1.184q-.445,2.668-.885,5.337c-.065.388-.138.448-.521.452-.11,0-.222,0-.333,0-.327-.013-.426-.142-.364-.479.085-.459.172-.919.259-1.378q.591-3.117,1.182-6.233c.084-.448.172-.9.258-1.344.061-.317.136-.4.381-.421.339-.027.44.031.553.346q.8,2.246,1.6,4.5c.315.89.633,1.78.975,2.742Z" transform="translate(-28.982 -10.423)" fill="#fff"/>
      <path id="Path_499" data-name="Path 499" d="M97.841,48.768l.912,1.711q.394.735.785,1.473a1.408,1.408,0,0,1,.113.24.318.318,0,0,1-.293.45c-.231.017-.465.006-.7,0-.2,0-.293-.129-.369-.288-.213-.429-.429-.856-.641-1.282q-.462-.926-.924-1.85c-.05-.1-.1-.2-.157-.308H94.111v3.216a.535.535,0,0,1-.1.408,1.109,1.109,0,0,1-1,0,.429.429,0,0,1-.088-.208,1.963,1.963,0,0,1-.008-.3V43.54c0-.577.036-.613.6-.613,1.131,0,2.263-.013,3.394.006a2.97,2.97,0,0,1,1.651,5.383c-.212.158-.448.285-.71.45Zm-3.69-4.67V47.82c.941,0,1.863.044,2.778-.012a1.866,1.866,0,0,0,1.605-2.155,1.907,1.907,0,0,0-1.852-1.569c-.765-.011-1.531,0-2.3,0-.075,0-.149.01-.235.015Z" transform="translate(-22.508 -10.467)" fill="#fff"/>
      <path id="Path_500" data-name="Path 500" d="M73.757,47.766a4.92,4.92,0,1,1-4.905-5.018A4.931,4.931,0,0,1,73.757,47.766Zm-4.926,3.853a3.876,3.876,0,1,0-3.8-3.874A3.835,3.835,0,0,0,68.831,51.619Z" transform="translate(-15.437 -10.425)" fill="#fff"/>
      <path id="Path_501" data-name="Path 501" d="M79.7,46.411V43.5a2.077,2.077,0,0,1,.006-.267.3.3,0,0,1,.3-.3,4.093,4.093,0,0,1,.532,0,.334.334,0,0,1,.348.331,2.088,2.088,0,0,1,0,.267v5.285A3.844,3.844,0,0,0,81.038,50a2.248,2.248,0,0,0,2.154,1.634,3.231,3.231,0,0,0,.953-.106,2.231,2.231,0,0,0,1.622-1.924,4.838,4.838,0,0,0,.059-.8c.006-1.761,0-3.524,0-5.285a2.622,2.622,0,0,1,.006-.3.288.288,0,0,1,.276-.285,5.171,5.171,0,0,1,.6,0,.317.317,0,0,1,.3.273.94.94,0,0,1,.015.233c0,1.907.013,3.814,0,5.722a3.578,3.578,0,0,1-1.112,2.669,3.411,3.411,0,0,1-1.957.917,3.764,3.764,0,0,1-2.734-.584,3.405,3.405,0,0,1-1.5-2.809c-.036-.98-.008-1.963-.008-2.943H79.7Z" transform="translate(-19.286 -10.468)" fill="#fff"/>
      <path id="Path_502" data-name="Path 502" d="M112.474,42.75a4.34,4.34,0,0,1,2.31.629c.333.2.375.373.188.717-.021.038-.045.077-.067.115a.376.376,0,0,1-.585.161c-.15-.073-.291-.163-.439-.236a2.8,2.8,0,0,0-1.97-.233,1.379,1.379,0,0,0-1.105,1.075,1.246,1.246,0,0,0,.34,1.228,3.075,3.075,0,0,0,.7.5c.381.2.784.361,1.179.538a7.637,7.637,0,0,1,1.508.842,2.45,2.45,0,0,1,.947,2.717,2.355,2.355,0,0,1-.853,1.246,3.3,3.3,0,0,1-2.57.661,4.358,4.358,0,0,1-2.278-1.011,1.616,1.616,0,0,1-.215-.21.27.27,0,0,1-.029-.34,4.465,4.465,0,0,1,.364-.475.272.272,0,0,1,.39-.031,2.413,2.413,0,0,1,.209.165,3.854,3.854,0,0,0,1.724.821,2.066,2.066,0,0,0,1.266-.156,1.364,1.364,0,0,0,.379-2.29,4.04,4.04,0,0,0-.842-.59c-.417-.229-.863-.4-1.29-.615a10.128,10.128,0,0,1-1.046-.577,2.343,2.343,0,0,1-1.056-2.428,2.421,2.421,0,0,1,1.609-2,3.052,3.052,0,0,1,1.238-.221Z" transform="translate(-26.552 -10.425)" fill="#fff"/>
      <path id="Path_503" data-name="Path 503" d="M56.966,44.008h-.35c-.587,0-1.175,0-1.762,0-.383,0-.488-.112-.494-.5,0-.067,0-.135,0-.2.019-.252.126-.361.371-.377.067,0,.134,0,.2,0h5.255a2.458,2.458,0,0,1,.266.006.3.3,0,0,1,.3.294,2.164,2.164,0,0,1,.008.334c-.008.338-.105.44-.436.446-.354.006-.71,0-1.064,0h-1.1c0,.136-.008.256-.008.373v7.686c0,.538-.048.584-.595.582-.526,0-.6-.069-.6-.594V44.008Z" transform="translate(-13.105 -10.469)" fill="#fff"/>
      <path id="Path_504" data-name="Path 504" d="M106.2,47.781v4.276a2.424,2.424,0,0,1-.006.267.313.313,0,0,1-.318.319,3.945,3.945,0,0,1-.564,0,.324.324,0,0,1-.318-.323,1.862,1.862,0,0,1,0-.235V43.5a1.87,1.87,0,0,1,0-.235.332.332,0,0,1,.34-.336,4.116,4.116,0,0,1,.532,0c.214.013.312.121.33.34.008.088,0,.179,0,.267v4.243Z" transform="translate(-25.455 -10.466)" fill="#fff"/>
    </g>
    <path id="Path_505" data-name="Path 505" d="M38.907,23.67a.755.755,0,0,1-.907.437c-.024-.006-.046-.013-.068-.02-.293-.093-.59-.174-.885-.259-.889-.259-1.794-.487-2.7-.669-.221-.044-.443-.083-.666-.117l-.059.949,0,.024c-.024.322-.041.645-.059.965-.006.078-.007.156-.013.233a.837.837,0,0,0,.441.86,3.644,3.644,0,0,1,.516.382.945.945,0,0,1,.273,1.08.531.531,0,0,1-.575.365c-.221-.011-.442-.043-.7-.067a4.884,4.884,0,0,0-1.626.03c-.168,0-.3-.009-.43,0a3.941,3.941,0,0,1-.415.022.5.5,0,0,1-.5-.417.916.916,0,0,1,.35-1.05c.2-.148.4-.285.6-.426a.594.594,0,0,0,.26-.524c0-.03,0-.063-.006-.093l-.118-2.329a25.773,25.773,0,0,0-2.694.591c-.291.078-.577.169-.867.256-.133.041-.266.076-.4.117a1.194,1.194,0,0,1-.811.07.707.707,0,0,1-.28-1.177,3.171,3.171,0,0,1,.418-.352c.774-.569,1.543-1.145,2.325-1.7.3-.217.607-.43.92-.63a9.068,9.068,0,0,0,.868-.578,1.052,1.052,0,0,0,.406-.9c-.011-.474,0-.96.015-1.438a6.313,6.313,0,0,1,.131-1.291,2.379,2.379,0,0,1,.586-1.123.587.587,0,0,1,.966.07,4.142,4.142,0,0,1,.666,2.461c.007.258.006.517-.009.773a4.624,4.624,0,0,0-.02.732,1.223,1.223,0,0,0,.387.784,6.129,6.129,0,0,0,1.09.769c.391.228.8.482,1.184.743.7.474,1.372.988,2.041,1.5.313.241.538.532.374.939l0,.011Z" transform="translate(-6.274 -3.574)" fill="#c69760"/>
    <path id="Path_506" data-name="Path 506" d="M25.857,25.332c.006.86,0,1.717,0,2.577q0,8.952,0,17.906a8.2,8.2,0,0,1-.182,1.665,2.5,2.5,0,0,1-.162.495,1.4,1.4,0,0,1-1.1.849,1.735,1.735,0,0,1-1.995-1,3.536,3.536,0,0,1-.258-.664q-.84-2.99-1.669-5.982-1.73-6.21-3.459-12.418-1.376-4.911-2.758-9.817-1.154-4.1-2.32-8.2a9.342,9.342,0,0,0-.335-.9.351.351,0,0,0-.274-.245.309.309,0,0,0-.255.221,1.842,1.842,0,0,0-.115.451c-.031.42-.057.843-.057,1.263q-.007,17.8,0,35.6c0,.348.011.7,0,1.045a.643.643,0,0,1-.864.637A.575.575,0,0,1,9.6,48.3a4.773,4.773,0,0,1-.046-.686q-.007-3.934,0-7.868,0-14.057.006-28.112a16.179,16.179,0,0,1,.1-1.7,2.761,2.761,0,0,1,.217-.76,1.588,1.588,0,0,1,2.7-.4,2.748,2.748,0,0,1,.532,1.013c.272.933.551,1.864.815,2.8q1.3,4.584,2.591,9.177,1.185,4.2,2.352,8.418,1.8,6.457,3.6,12.92c.329,1.183.648,2.367.982,3.549a2.706,2.706,0,0,0,.225.556c.079.147.2.289.384.264s.263-.19.294-.356a4.351,4.351,0,0,0,.09-.678c.013-.707.008-1.412.008-2.118q0-8.914,0-17.826V21.352s1.04-.326,1.414-.389Z" transform="translate(-2.175 -1.994)" fill="#c69760"/>
    <path id="Path_507" data-name="Path 507" d="M34.9,29.971c-.009.149-.025.272-.025.4q0,1.491,0,2.985v.607q0,4.176,0,8.347,0,4.484-.009,8.968a12.373,12.373,0,0,1-.09,1.426,1.64,1.64,0,0,1-1.067,1.385,1.22,1.22,0,0,1-.291.078.638.638,0,0,1-.736-.428.665.665,0,0,1,.288-.835.945.945,0,0,0,.516-.789,4.854,4.854,0,0,0,.038-.547q0-8.8,0-17.6h-.009V30A4.166,4.166,0,0,1,34.9,29.971Z" transform="translate(-7.805 -7.3)" fill="#c69760"/>
    <path id="Path_508" data-name="Path 508" d="M39.422,31.73q.007,7.484-.006,14.966c0,1.228-.011,2.458-.016,3.687a4.852,4.852,0,0,1-.171,1.249,1.974,1.974,0,0,1-.867,1.162,1.2,1.2,0,0,1-.376.152.584.584,0,0,1-.735-.315.705.705,0,0,1,.162-.852c.035-.03.072-.055.109-.082a1.2,1.2,0,0,0,.439-.741,3.479,3.479,0,0,0,.052-.6q0-9.53,0-19.064c0-.419,0-.841,0-1.262h0V28.657q0-.733,0-1.465c0-.036,0-.073,0-.111V25.1s.787.188,1.416.392v2.262C39.448,29.079,39.421,30.406,39.422,31.73Z" transform="translate(-8.913 -6.119)" fill="#c69760"/>
    <path id="Path_509" data-name="Path 509" d="M6.308,8.3a1.836,1.836,0,0,0-1.1,1.322,7.769,7.769,0,0,0-.148,1.586V29.141h0V41.105q0,3.272.006,6.546a5.663,5.663,0,0,0,.061.71.513.513,0,0,0,.217.368.637.637,0,0,0,1.023-.458c.027-.273.035-.549.035-.824q0-17.988.006-35.975c0-.376.016-.751.027-1.127a1.039,1.039,0,0,1,.42-.828c.044-.033.091-.062.132-.1a.66.66,0,0,0,.179-.862A.636.636,0,0,0,6.309,8.3Z" transform="translate(-1.08 -2.004)" fill="#c69760"/>
    <path id="Path_510" data-name="Path 510" d="M1.822,8.291A1.717,1.717,0,0,0,.737,9.579a7.506,7.506,0,0,0-.1,1.2Q.63,20,.635,29.212h0V47.724c0,.164,0,.33,0,.495a.57.57,0,0,0,.689.617.575.575,0,0,0,.532-.408A1.477,1.477,0,0,0,1.933,48c.009-.266,0-.531,0-.8V11.8c0-.449.009-.9.013-1.348a1.136,1.136,0,0,1,.508-1.009.888.888,0,0,0,.129-.1A.6.6,0,0,0,2.7,8.612a.661.661,0,0,0-.883-.321Z" transform="translate(0 -2.004)" fill="#c69760"/>
    <path id="Path_511" data-name="Path 511" d="M9.792,1.355a4.737,4.737,0,0,1,.519-.025H42.359a2.571,2.571,0,0,0,.382-.019A.649.649,0,0,0,43.3.749a.619.619,0,0,0-.42-.639,1.622,1.622,0,0,0-.4-.09,3.081,3.081,0,0,0-.382,0H12.625c-.739,0-1.479-.016-2.217.009A8.225,8.225,0,0,0,9.134.179,1.55,1.55,0,0,0,8,1.122a.641.641,0,0,0,.418.953.567.567,0,0,0,.654-.281.936.936,0,0,1,.724-.436Z" transform="translate(-1.778 0)" fill="#c69760"/>
    <path id="Path_512" data-name="Path 512" d="M47.385,5.161a1.56,1.56,0,0,0-1.293-.98,15.833,15.833,0,0,0-1.664-.1q-7.664-.012-15.328,0V4.065q-8.006,0-16.012,0a2.3,2.3,0,0,0-.541.062.611.611,0,0,0-.466.632.625.625,0,0,0,.532.58,3.025,3.025,0,0,0,.464.027l31.176,0c.329,0,.657.008.985,0a1.212,1.212,0,0,1,1.133.528.565.565,0,0,0,.805.117.649.649,0,0,0,.209-.854Z" transform="translate(-2.792 -0.989)" fill="#c69760"/>
    <path id="Path_513" data-name="Path 513" d="M29.943,16.782a.657.657,0,0,0,.673-.53,1.828,1.828,0,0,0,.03-.383q0-1.679,0-3.356V9.13a2.083,2.083,0,0,0-.017-.329.686.686,0,0,0-1.358-.036,1.482,1.482,0,0,0-.024.3q0,3.424,0,6.848a1.492,1.492,0,0,0,.039.354.642.642,0,0,0,.658.512Z" transform="translate(-6.979 -1.996)" fill="#c69760"/>
    <path id="Path_514" data-name="Path 514" d="M38.975,16.784a.674.674,0,0,0,.684-.556,1.76,1.76,0,0,0,.028-.327q0-3.4,0-6.793a1.709,1.709,0,0,0-.038-.381A.657.657,0,0,0,39,8.2a.647.647,0,0,0-.683.515,1.635,1.635,0,0,0-.031.383q0,1.691,0,3.383v3.41a2.083,2.083,0,0,0,.016.329.669.669,0,0,0,.673.568Z" transform="translate(-9.184 -1.997)" fill="#c69760"/>
    <path id="Path_515" data-name="Path 515" d="M35.162,8.889a.688.688,0,1,0-1.377,0v2.118a.688.688,0,1,0,1.377,0Z" transform="translate(-8.086 -1.997)" fill="#c69760"/>
  </g>
</svg>
