<svg xmlns="http://www.w3.org/2000/svg" width="345.142" height="468.49" viewBox="0 0 345.142 468.49">
  <g id="sr-logo-large" transform="translate(618.5 324)">
    <path id="Path_187" data-name="Path 187" d="M52.622,0,24.984,59.245h-.051V457.878a41.361,41.361,0,0,0,55.326,0V59.245ZM38.675,42.3l13.9-29.826L66.517,42.3v.153c-.254.254-.611.509-.916.763a20.749,20.749,0,0,1-26.009,0c-.305-.254-.662-.56-.916-.763Zm35.985,371.1a41.162,41.162,0,0,1-44.129,0V63.622a40.957,40.957,0,0,0,44.129.051Z" transform="translate(-516.029 -324)" fill="#e5a624"/>
    <path id="Union_4" data-name="Union 4" d="M126.641,351.982c-34.411,0-80.1-11.388-96.513-15.19-2.112-.508-4.26-.852-5.767-1.063a15.277,15.277,0,0,0-3.513.128A13.514,13.514,0,0,0,10.5,348.913v3.055H0V240.618a175.158,175.158,0,0,0,75.08,82.414c.944.508,1.878,1.017,2.822,1.525,0,0,2.877,1.4,6.807,3.092a1.7,1.7,0,0,0,.252.1,168.246,168.246,0,0,0,42.056,13.371v10.861Zm180.228-.174a17.792,17.792,0,0,1-1.86-.105c-1.754-.082-3.509-.229-5.222-.44a74.135,74.135,0,0,1-21.264-5.955,75.016,75.016,0,0,1-44.058-61.076V254.2c.082-12.95.151-25.085.211-33.692v-.252c.041-1.017.041-2.034.041-2.945v-.247c-.041-1.067-.128-2.135-.252-3.179a38.177,38.177,0,0,0-37.1-33.8H182.23v-8.447h14.251c.614.009,1.228-.009,1.837-.06a37.543,37.543,0,0,0,12.016-2.547,38.253,38.253,0,0,0,24.15-31.191,35.531,35.531,0,0,0,.27-4.466c0-1.214.041-23.926.041-23.926V46a34.782,34.782,0,0,0-.316-4.677,36.2,36.2,0,0,0-20.692-28.14,35.56,35.56,0,0,0-9.272-2.863,36.575,36.575,0,0,0-5.918-.476c-1.585,0-10.444-.188-16.376-.247V.184h62.927a88.115,88.115,0,0,1,6.4,175.9,87.694,87.694,0,0,1,80.764,85v73.953a8.657,8.657,0,0,0,8.653,8.607,8.393,8.393,0,0,0,3.44-.733,74.262,74.262,0,0,1-23.981,8.044l-.44.06c-2.483.289-5.117.508-7.852.646-.4,0-.792.041-1.214.041s-.852.041-1.292.06c-.687.041-1.4.041-2.112.041Zm-203.1-132.592a292.579,292.579,0,0,1-39.487-13.674c-1.585-.687-3.133-1.4-4.677-2.13A106.388,106.388,0,0,1,.586,119.579q-.6-6.624-.586-13.871c0-1.988.06-3.949.188-5.937,0-.435.041-.852.082-1.292A106.48,106.48,0,0,1,58.3,12.182c1.063-.545,2.153-1.063,3.257-1.567a6.306,6.306,0,0,1,.623-.289A119.3,119.3,0,0,1,88.5,2.406a3.44,3.44,0,0,1,.715-.128A145.587,145.587,0,0,1,115.45,0h.082c1.965,0,9.629.11,11.466.188V10.258H109.134a81.65,81.65,0,0,0-15.978,1.525c-1.484.293-2.909.609-4.329.985a.068.068,0,0,0-.06,0c-2.038.545-4.013,1.168-5.937,1.878h-.082a2.758,2.758,0,0,1-.394.169l-1.782.705a1.957,1.957,0,0,0-.44.188A48.247,48.247,0,0,0,71.2,97.93l.082.06c1.017.687,2.112,1.361,3.216,2.006q3.607,2.164,7.636,4.072a.648.648,0,0,0,.169.082A269.452,269.452,0,0,0,127,119.419V226.152C119.834,223.857,112.084,221.571,103.769,219.216Z" transform="translate(-618 -264.93)" fill="#fff" stroke="rgba(0,0,0,0)" stroke-miterlimit="10" stroke-width="1"/>
  </g>
</svg>