<svg xmlns="http://www.w3.org/2000/svg" width="68.403" height="92.045" viewBox="0 0 68.403 92.045">
  <g id="sr-logo" transform="translate(618.5 324)">
    <path id="Path_187" data-name="Path 187" d="M30.373,0l-5.43,11.64h-.01V89.96a8.126,8.126,0,0,0,10.87,0V11.64Zm-2.74,8.31,2.73-5.86L33.1,8.31v.03c-.05.05-.12.1-.18.15a4.077,4.077,0,0,1-5.11,0c-.06-.05-.13-.11-.18-.15ZM34.7,81.22a8.087,8.087,0,0,1-8.67,0V12.5a8.047,8.047,0,0,0,8.67.01Z" transform="translate(-618 -324)" fill="curentColor" className="text--primary" />
    <path id="Union_4" data-name="Union 4" d="M24.881,69.154c-6.761,0-15.737-2.237-18.962-2.984-.415-.1-.837-.167-1.133-.209a3,3,0,0,0-.69.025,2.655,2.655,0,0,0-2.032,2.565v.6H0V47.274A34.413,34.413,0,0,0,14.751,63.466l.554.3s.565.275,1.337.607a.334.334,0,0,0,.049.02,33.055,33.055,0,0,0,8.263,2.627v2.134Zm35.41-.034a3.5,3.5,0,0,1-.365-.021c-.345-.016-.689-.045-1.026-.086a14.565,14.565,0,0,1-4.178-1.17,14.738,14.738,0,0,1-8.656-12v-5.9c.016-2.544.03-4.928.041-6.62v-.049c.008-.2.008-.4.008-.579v-.049c-.008-.21-.025-.419-.049-.625a7.5,7.5,0,0,0-7.29-6.641H35.8v-1.66h2.8c.121,0,.241,0,.361-.012a7.376,7.376,0,0,0,2.361-.5,7.516,7.516,0,0,0,4.745-6.128,6.981,6.981,0,0,0,.053-.878c0-.239.008-4.7.008-4.7V9.037a6.833,6.833,0,0,0-.062-.919A7.112,7.112,0,0,0,42,2.589a6.987,6.987,0,0,0-1.822-.562,7.186,7.186,0,0,0-1.163-.094c-.311,0-2.052-.037-3.217-.049V.036H48.164A17.312,17.312,0,0,1,49.422,34.6,17.229,17.229,0,0,1,65.29,51.3v14.53a1.7,1.7,0,0,0,1.7,1.691,1.649,1.649,0,0,0,.676-.144,14.59,14.59,0,0,1-4.712,1.58l-.086.012c-.488.057-1.005.1-1.543.127-.078,0-.156.008-.238.008s-.167.008-.254.012c-.135.008-.275.008-.415.008Zm-39.9-26.051a57.484,57.484,0,0,1-7.758-2.687c-.311-.135-.616-.274-.919-.418A20.9,20.9,0,0,1,.115,23.494Q0,22.192,0,20.768c0-.391.012-.776.037-1.166,0-.086.008-.167.016-.254a20.92,20.92,0,0,1,11.4-16.955c.209-.107.423-.209.64-.308a1.239,1.239,0,0,1,.122-.057A23.439,23.439,0,0,1,17.388.473a.676.676,0,0,1,.14-.025A28.6,28.6,0,0,1,22.683,0H22.7c.386,0,1.892.022,2.253.037V2.015h-3.51a16.042,16.042,0,0,0-3.139.3c-.292.058-.572.12-.851.194a.013.013,0,0,0-.012,0c-.4.107-.788.23-1.166.369h-.016a.542.542,0,0,1-.077.033l-.35.139a.384.384,0,0,0-.086.037A9.479,9.479,0,0,0,13.988,19.24l.016.012c.2.135.415.267.632.394q.709.425,1.5.8a.127.127,0,0,0,.033.016,52.939,52.939,0,0,0,8.782,3v20.97C23.544,43.981,22.021,43.532,20.388,43.069Z" transform="translate(-618 -312.394)" fill="curentColor" className="text--white" stroke="rgba(0,0,0,0)" strokeMiterlimit="10" strokeWidth="1"/>
  </g>
</svg>
